<?xml version="1.0" encoding="utf-8"?>
<!-- Generator: Adobe Illustrator 24.1.1, SVG Export Plug-In . SVG Version: 6.00 Build 0)  -->
<svg version="1.1" id="Layer_1" xmlns="http://www.w3.org/2000/svg" xmlns:xlink="http://www.w3.org/1999/xlink" x="0px" y="0px"
	 viewBox="0 0 512 512" style="enable-background:new 0 0 512 512;" xml:space="preserve">
<style type="text/css">
	.st0{fill:#FFFFFF;}
</style>
<path class="st0" d="M411.9,198.7c11.1-3.9,16.9-16.1,13-27.2c-0.8-2.2-1.9-4.2-3.3-6c-26.5-34-72.1-51.3-103.1-59.5
	c16,29.9,27.9,67.4,32,114.4L411.9,198.7z"/>
<path class="st0" d="M78.3,235.3c-10.6,30.1-20.6,73.9-9,112.5c3.4,11.3,15.3,17.7,26.6,14.3c2.2-0.7,4.3-1.7,6.1-3l39.7-27.9
	c-23.1-21.8-41.9-47.8-55.4-76.6C83.2,248.3,80.6,241.9,78.3,235.3L78.3,235.3z"/>
<path class="st0" d="M507.4,380.6c-2.2-3.2-6-4.9-9.9-4.5c-0.8,0.1-85.2,8.2-133.3-35.2c-22.3-20.1-33.6-48.6-33.6-84.8
	c0-126.1-55.6-187.6-102.3-217C197.3,19.6,162.1,8,125.6,5.5c-4.5-0.1-8.5,2.6-10.2,6.7c-36.3,90.8-39.7,169.4-9.9,233.6
	c34.1,73.5,110.1,129,232.4,169.8c41.4,13.8,86,44.1,86,77.9c0,5.9,4.8,10.7,10.7,10.7c4,0,7.7-2.3,9.5-5.9
	c4.6-9.1,2.6-21.9,0.5-35.5c-1.4-7.6-2.1-15.3-2.1-23.1c43.3-4.7,64.6-46.3,65.5-48.1C509.9,388,509.7,383.8,507.4,380.6
	L507.4,380.6z M170.7,128c-11.8,0-21.3-9.6-21.3-21.3s9.6-21.3,21.3-21.3c11.8,0,21.3,9.6,21.3,21.3S182.4,128,170.7,128z"/>
<circle class="st0" cx="435.4" cy="72.8" r="33.9"/>
<circle class="st0" cx="204.1" cy="457.3" r="33.4"/>
<circle class="st0" cx="32" cy="178.7" r="32"/>
</svg>
